<?xml version="1.0" encoding="UTF-8" standalone="no"?>
<!DOCTYPE svg PUBLIC "-//W3C//DTD SVG 1.1//EN" "http://www.w3.org/Graphics/SVG/1.1/DTD/svg11.dtd">
<svg xmlns="http://www.w3.org/2000/svg" xmlns:xl="http://www.w3.org/1999/xlink" version="1.1" xmlns:dc="http://purl.org/dc/elements/1.1/" viewBox="100.92105 26.571007 411.77106 583.9894" width="411.77106" height="583.9894">
  <defs/>
  <g id="Canvas_1" fill-opacity="1" fill="none" stroke-dasharray="none" stroke="none" stroke-opacity="1">
    <title>Canvas 1</title>
    <g id="Canvas_1_Layer_1">
      <title>Layer 1</title>
      <g id="Graphic_2">
        <path d="M 340.86955 466.7465 C 340.86955 481.7845 341.03855 496.8265 340.77555 511.8585 C 340.68755 516.9505 341.90355 521.2815 345.03255 525.1605 C 354.63755 537.0695 364.44355 548.7775 377.08555 557.7025 C 403.40955 576.2815 436.86055 570.2645 452.76855 538.6515 C 461.64255 521.0155 465.74355 502.1595 466.72155 482.4755 C 468.17555 453.2115 467.51055 424.0175 455.30855 396.9115 C 445.78655 375.7605 419.57655 356.0275 390.88355 368.4045 C 374.81455 375.3365 363.49055 387.5845 351.93455 400.0505 C 343.21955 409.4505 339.83055 419.6045 340.71655 432.2025 C 341.52155 443.6645 340.88755 455.2265 340.86955 466.7465 M 341.33955 280.2645 C 341.22355 306.4735 341.09855 332.6815 341.01555 358.8905 C 341.01155 360.0245 341.36555 361.1565 341.79955 363.7815 C 345.97355 359.3875 349.32055 356.1565 352.33755 352.6415 C 380.46655 319.8785 427.45655 312.7845 462.93855 334.6705 C 477.53955 343.6775 488.12455 358.0075 495.03855 373.8155 C 516.35655 422.5565 516.54755 473.0165 505.25455 524.0695 C 498.64855 553.9345 485.37255 579.6135 458.84655 596.9775 C 433.14855 613.8015 389.71455 616.5175 361.67155 591.7925 C 353.18155 584.3085 345.24255 576.2545 337.72655 567.7325 C 336.95955 568.0225 336.19155 568.3155 335.42555 568.6065 C 335.42555 577.0375 335.16155 585.4775 335.51155 593.8925 C 335.77155 600.1655 332.64655 603.4955 327.20355 605.0715 C 320.33155 607.0605 313.23655 607.3175 306.39955 605.2785 C 301.23655 603.7385 297.88755 600.5465 297.90755 594.1565 C 298.08355 536.2845 297.78755 486.5655 297.84855 428.6925 C 297.72755 423.3825 297.90755 416.3325 297.90755 414.2495 C 299.13155 414.6245 299.63455 414.5015 300.87755 414.7795 C 317.18255 418.3995 319.49855 419.3685 319.50655 402.8505 C 319.53055 341.5235 319.53355 280.1935 319.53355 218.8635 C 319.40455 195.5495 318.73855 194.7995 340.32255 203.9365 C 340.75255 219.9725 340.71655 220.8445 341.07455 228.9885 C 341.01155 253.7175 340.91355 263.0835 341.33955 280.2645" fill="#f89a0e"/>
      </g>
      <g id="Graphic_3">
        <path d="M 340.32265 203.9365 C 319.42565 195.1495 319.43465 195.1525 319.43465 218.1275 C 319.43465 279.4575 319.43165 340.7875 319.40765 402.1145 C 319.39965 418.6325 318.99965 418.9255 302.69365 415.3055 C 301.45065 415.0265 299.13165 414.6245 297.90765 414.2495 C 297.90765 411.4995 297.97065 384.3825 298.12965 360.5955 C 298.33665 329.3815 298.07165 153.5085 298.03665 49.9645 C 298.03465 43.5175 297.23565 37.2215 305.69065 34.6665 C 313.76065 32.2275 329.00965 33.8325 333.14665 38.2455 C 335.41865 40.6695 335.11465 43.4985 335.14565 46.3275 C 335.20065 51.1205 335.16465 55.9145 335.16565 60.7075 L 335.16565 76.6625 C 345.10065 67.5635 353.67765 59.4475 362.53365 51.6465 C 401.24565 17.5415 470.46665 22.4575 495.90365 82.1935 C 501.64665 95.6805 505.58365 109.9685 508.38165 124.3755 C 509.15765 128.3695 509.87465 132.3745 510.59365 136.3785 C 511.98765 144.1305 511.94765 152.0565 511.89465 159.9045 C 511.84165 167.9285 511.91565 175.9565 511.72565 183.9785 C 511.61565 188.6445 511.40565 193.3095 510.99965 197.9595 C 510.04365 208.9105 507.90965 220.0405 505.15765 230.6755 C 501.77165 243.7575 498.35065 256.5905 491.91265 268.5755 C 484.68665 282.0265 474.55265 293.7065 462.09665 302.5605 C 460.36865 303.7885 458.60165 304.9635 456.80165 306.0835 C 430.69865 322.3385 388.28965 324.2925 362.75165 299.5485 C 355.71865 292.7325 348.49265 285.9855 341.31565 279.3205 C 341.26565 263.3185 340.76865 250.4645 341.07465 228.9885 C 350.45765 240.5075 360.11365 251.4715 371.30665 261.3315 C 395.38465 282.5395 423.65065 280.4495 442.65165 260.5345 C 454.86965 247.7275 459.95165 230.9815 463.64365 214.1435 C 469.18765 188.8685 468.31265 163.2675 464.80765 137.8385 C 462.58865 121.7435 458.14665 106.2065 448.75365 92.4225 C 436.29865 74.1465 411.46365 67.5865 391.52565 76.1605 C 371.71265 84.6795 358.42565 99.9705 345.56265 116.0965 C 341.84665 120.7555 340.46465 125.9075 340.52065 132.0235 C 340.73865 155.9915 340.43365 179.9645 340.32265 203.9365 Z" fill="#130e43"/>
      </g>
      <g id="Graphic_4">
        <path d="M 146.94665 170.9736 C 146.84265 189.9786 147.81365 208.5476 153.46265 227.3056 C 168.13365 276.0156 216.53165 282.5186 248.69665 260.3066 C 256.76465 254.7336 264.11265 248.1306 271.96565 242.2366 C 278.71765 237.1666 283.58165 238.8126 284.57065 247.2576 C 287.72465 274.1906 286.99865 284.3356 260.20565 300.0006 C 234.25965 315.1696 206.77965 318.8576 178.52465 312.1286 C 150.57265 305.4716 130.09965 287.4366 118.24165 261.1176 C 99.38665 219.2716 97.58665 175.5536 104.98765 130.7806 C 107.98865 112.6306 112.78465 95.3756 121.48365 79.1966 C 133.80165 56.2816 151.71765 40.1486 176.79765 32.0046 C 206.36165 22.4036 234.36265 25.6766 261.31565 40.6306 C 280.75465 51.4146 287.44565 64.5686 284.41265 86.3506 C 282.74765 98.3156 276.59565 101.4406 267.92865 93.7446 C 256.36465 83.4746 243.41365 74.2976 229.31565 69.9846 C 204.78265 62.4796 182.87665 66.2406 165.37965 89.2776 C 152.95665 105.6336 149.31665 125.3046 147.10565 145.1026 C 146.15365 153.6256 146.94665 162.3436 146.94665 170.9736 Z" fill="#850307"/>
      </g>
      <g id="Graphic_5">
        <path d="M 146.67225 468.5668 C 146.67325 468.8528 146.67425 469.1378 146.67525 469.4238 C 146.76025 487.6778 147.04825 506.5858 153.76425 523.8228 C 161.61025 543.9628 175.80325 561.8538 197.85225 566.3578 C 203.71425 567.5548 210.07825 568.1558 216.06425 567.9788 C 233.69725 567.4588 245.35525 557.7428 258.12625 548.7358 C 263.05425 545.2598 267.36725 540.8948 272.37025 537.5458 C 279.03725 533.0848 282.60625 534.6988 284.80825 542.4558 C 290.85025 563.7328 283.72425 582.0948 264.69825 593.1878 C 231.49325 612.5458 196.86025 616.6228 161.21025 600.8618 C 136.44125 589.9138 121.79025 569.2338 113.10125 544.5738 C 99.88125 507.0518 98.27225 468.3818 104.21025 429.1978 C 108.03825 403.9468 116.59225 380.8548 130.77525 359.3428 C 140.10825 345.1858 153.42025 336.6418 167.68625 330.7608 C 199.69325 317.5668 231.71225 318.8028 262.38225 336.7018 C 280.44925 347.2468 287.28525 360.2138 284.57225 381.1208 C 282.85925 394.3238 277.12925 397.0628 266.90825 389.0798 C 256.38925 380.8638 246.67825 371.8318 233.60025 367.1948 C 228.44625 365.3678 221.85325 365.0918 216.43125 364.4758 C 211.00625 363.8588 205.51825 363.5648 200.06825 364.0308 C 189.76425 364.9128 180.14825 368.8138 172.54425 375.8958 C 153.90225 393.2588 148.90125 421.0988 147.28825 445.3488 C 146.77525 453.0708 146.64725 460.8278 146.67225 468.5668 Z" fill="#20cf0c"/>
      </g>
    </g>
  </g>
</svg>
